# xmcd
#
# Track frame offsets:
#	150
#	11986
#	28437
#	44950
#	53859
#	66947
#	84816
#	96846
#	112234
#	126421
#	141287
#	154208
#	165042
#	178332
#	192018
#	206854
#	226626
#	236559
#	253681
#	266579
#	277908
#	287577
#	300228
#	311621
#	325328
#	339693
#
# Disc length: 4708 seconds
# Revision: 0
# Processed by: cddbd v1.5.2PL0 Copyright (c) Steve Scherf et al.
# Submitted via: dBpowerAMP V12.0
#
DISCID=8312621a
DTITLE=Tennessee Ernie Ford - The Greatest Hymns Of All Time
DYEAR=1900
DGENRE=Gospel
TTITLE0=Sweet Hour Of Prayer
TTITLE1=Break Thou The Bread Of Life
TTITLE2=My Jesus I Love Thee
TTITLE3=All Hail The Power
TTITLE4=Precious Moments
TTITLE5=It Is Well Within My Soul
TTITLE6=How Great Thou Art
TTITLE7=What A Friend We Have In Jesus
TTITLE8=The Ninety And Nine
TTITLE9=Jesus Paid It All
TTITLE10=In The Garden
TTITLE11=Blessed Assurance
TTITLE12=The Old Rugged cross
TTITLE13=Faith Of Our Fathers
TTITLE14=The Solid Rock
TTITLE15=Did You Think To Pray
TTITLE16=Brighten The Corner
TTITLE17=When They Ring The Golden Bells
TTITLE18=Almost Persuaded
TTITLE19=Whispering Hope
TTITLE20=When The Roll Is Called Up Yonder
TTITLE21=Rock Of Ages
TTITLE22=Saved By Grace
TTITLE23=I Love To Tell The Story
TTITLE24=Softly And Tennderly
TTITLE25=I Need Thee Every Hour
EXTD=
EXTT0=
EXTT1=
EXTT2=
EXTT3=
EXTT4=
EXTT5=
EXTT6=
EXTT7=
EXTT8=
EXTT9=
EXTT10=
EXTT11=
EXTT12=
EXTT13=
EXTT14=
EXTT15=
EXTT16=
EXTT17=
EXTT18=
EXTT19=
EXTT20=
EXTT21=
EXTT22=
EXTT23=
EXTT24=
EXTT25=
PLAYORDER=
